<?xml version="1.0" encoding="UTF-8"?> <svg xmlns="http://www.w3.org/2000/svg" width="1314" height="136" viewBox="0 0 1314 136" fill="none"><path d="M629.192 68.5207H611.597C611.597 80.5273 608.548 94.0635 602.8 103.201C589.604 95.4231 578.947 83.7464 570.149 72.9194C589.264 67.171 612.437 57.3538 612.437 33.0007C612.437 14.3959 599.241 0.0199944 576.237 0.0199944C551.544 0.0199944 538.518 17.2751 538.518 35.54C538.518 45.3472 541.227 55.6643 546.976 66.8311C533.109 74.439 526.341 86.1157 526.341 99.142C526.341 121.306 546.976 135.342 571.839 135.342C583.345 135.342 595.012 130.773 605.329 121.976C618.355 129.413 632.901 133.142 647.617 133.142V118.427C638.99 118.087 624.784 115.547 616.996 110.649C624.944 98.3022 628.832 82.9066 629.172 68.5307L629.192 68.5207ZM575.797 14.7358C587.944 14.7658 595.022 24.0532 595.022 33.0007C595.022 46.3669 578.957 54.3147 562.371 60.5729C557.973 51.7754 555.943 43.9976 555.943 36.0498C555.943 25.7627 562.671 14.7958 575.797 14.7358ZM571.849 120.626C557.133 120.626 543.766 114.028 543.766 99.142C543.766 92.8838 545.966 84.4262 554.593 79.0177C564.071 92.044 576.757 104.051 591.303 113.868C586.055 118.097 579.966 120.636 571.849 120.636V120.626Z" fill="black"></path><path d="M695.124 0.00999718C683.617 0.00999718 671.95 4.57871 661.633 13.3762C648.607 5.93832 634.061 2.20938 619.345 2.20938V16.9252C627.973 17.2651 642.179 19.8044 649.967 24.703C642.019 37.0495 638.13 52.4452 637.79 66.8211H655.385C655.385 54.8145 658.434 41.2783 664.182 32.1409C677.379 39.9187 688.036 51.5954 696.833 62.4224C677.719 68.1708 654.545 77.988 654.545 102.341C654.545 120.946 667.742 135.322 690.745 135.322C715.438 135.322 728.464 118.067 728.464 99.8018C728.464 89.9946 725.755 79.6775 720.007 68.5107C733.873 60.9028 740.641 49.2261 740.641 36.1998C740.641 14.036 720.007 0 695.144 0L695.124 0.00999718ZM691.175 120.616C679.028 120.586 671.95 111.299 671.95 102.351C671.95 88.9849 688.016 81.0371 704.601 74.7789C709 83.5764 711.029 91.3542 711.029 99.302C711.029 109.589 704.301 120.556 691.175 120.616ZM712.379 56.3441C702.902 43.3178 690.215 31.3112 675.669 21.4939C680.918 17.2651 687.006 14.7258 695.124 14.7258C709.84 14.7258 723.206 21.324 723.206 36.2098C723.206 42.468 721.007 50.9256 712.379 56.3341V56.3441Z" fill="black"></path><path d="M1314 119.216L1279.15 65.3815L1312.13 16.1255H1294.14L1269.81 52.995L1245.9 16.1255H1225.03L1257.51 65.6515L1221.72 119.216H1239.71L1266.83 78.3979L1293.28 119.216H1314Z" fill="black"></path><path d="M1117.59 27.6522C1112.31 23.6233 1106.11 20.6942 1099.01 18.8647C1091.9 17.0452 1084.27 16.1255 1076.12 16.1255H1047.32V119.216H1075.97C1087.1 119.216 1097.09 117.197 1105.92 113.168C1114.75 109.139 1121.7 103.231 1126.79 95.4631C1131.88 87.5953 1134.43 77.998 1134.43 66.6712C1134.43 57.5538 1132.94 49.776 1129.96 43.3478C1126.99 36.9196 1122.86 31.6811 1117.59 27.6522ZM1110.53 87.5453C1107.26 92.9238 1102.75 96.9526 1096.99 99.6419C1091.23 102.231 1084.61 103.531 1077.13 103.531H1065.17V31.971H1077.41C1084.7 31.971 1091.18 33.1706 1096.85 35.57C1102.61 37.8693 1107.17 41.6183 1110.53 46.7968C1113.89 51.8854 1115.57 58.6534 1115.57 67.1011C1115.57 75.5487 1113.89 82.1668 1110.53 87.5453Z" fill="black"></path><path d="M1012.1 93.2437L964.149 16.1255H943.125V119.216H959.83V41.5283L1007.92 119.216H1028.8V16.1255H1012.1V93.2437Z" fill="black"></path><path d="M1165.99 73.5692H1207.45V58.0236H1165.99V31.821H1215.09V16.1255H1148.14V119.216H1215.81V103.661H1165.99V73.5692Z" fill="black"></path><path d="M876.513 16.1255V16.1454L876.084 16.1255L836.345 119.216H852.47L862.387 93.4436H904.785L914.813 119.216H932.958L892.789 16.1255H876.513ZM868.426 77.7481L883.471 38.6591L898.677 77.7481H868.426Z" fill="black"></path><path d="M849.671 16.1255H832.536L807.353 60.313L782.29 16.1255H762.706L797.406 75.9686V119.216H815.261V76.5484L849.671 16.1255Z" fill="black"></path><path d="M86.9655 16.1255H69.8303L44.6474 60.313L19.5845 16.1255H0L34.7002 75.9686V119.216H52.5552V76.5484L86.9655 16.1255Z" fill="black"></path><path d="M171.832 28.7819C167.033 24.1732 161.514 20.6742 155.276 18.2748C149.138 15.8755 142.65 14.6759 135.842 14.6759C129.034 14.6759 122.545 15.9255 116.407 18.4148C110.259 20.8141 104.79 24.3231 99.9918 28.9218C95.1931 33.5305 91.4042 39.099 88.615 45.6271C85.9258 52.1553 84.5861 59.4932 84.5861 67.6609C84.5861 75.8286 85.9258 83.1665 88.615 89.6947C91.3942 96.2228 95.1931 101.791 99.9918 106.4C104.79 111.009 110.259 114.558 116.407 117.057C122.555 119.456 129.034 120.656 135.842 120.656C142.65 120.656 149.138 119.406 155.276 116.917C161.514 114.418 167.033 110.869 171.832 106.26C176.63 101.561 180.379 95.9429 183.058 89.4148C185.838 82.7966 187.237 75.3987 187.237 67.241C187.237 59.0833 185.848 51.7854 183.058 45.3572C180.369 38.829 176.63 33.3106 171.832 28.8019V28.7819ZM163.764 87.9552C160.595 93.4236 156.516 97.6025 151.527 100.482C146.539 103.261 141.31 104.66 135.832 104.66C130.353 104.66 125.275 103.271 120.286 100.482C115.297 97.6025 111.169 93.4236 107.9 87.9552C104.73 82.3868 103.151 75.6187 103.151 67.6509C103.151 59.6832 104.73 52.8251 107.9 47.3466C111.159 41.8782 115.287 37.7493 120.286 34.9601C125.275 32.0809 130.463 30.6414 135.832 30.6414C141.2 30.6414 146.539 32.0809 151.527 34.9601C156.516 37.7393 160.595 41.8682 163.764 47.3466C166.933 52.8151 168.512 59.5832 168.512 67.6509C168.512 75.7186 166.933 82.3868 163.764 87.9552Z" fill="black"></path><path d="M265.335 76.1685C265.335 82.4067 264.185 87.5953 261.876 91.7141C259.667 95.843 256.688 98.9621 252.949 101.071C249.21 103.181 245.131 104.241 240.712 104.241C236.293 104.241 232.124 103.181 228.476 101.071C224.927 98.9621 222.097 95.843 219.978 91.7141C217.868 87.4953 216.809 82.3068 216.809 76.1685V15.4156H198.954V77.4681C198.954 86.9755 200.683 94.8932 204.132 101.221C207.681 107.46 212.53 112.158 218.678 115.327C224.917 118.397 232.024 119.936 239.992 119.936C247.96 119.936 255.498 118.307 261.736 115.038C268.074 111.778 273.013 106.93 276.562 100.492C280.111 93.9635 281.89 85.9957 281.89 76.5884V15.4156H265.335V76.1785V76.1685Z" fill="black"></path><path d="M443.505 79.1876H475.086C474.786 84.5561 473.666 89.0749 471.727 92.7238C469.427 96.9426 466.208 100.072 462.08 102.081C458.051 104.001 453.342 104.96 447.974 104.96C441.925 104.96 436.457 103.571 431.558 100.782C426.76 97.9024 422.921 93.8735 420.041 88.685C417.262 83.4065 415.863 77.0683 415.863 69.6803C415.863 61.6126 417.402 54.7046 420.471 48.9462C423.64 43.1878 428.099 38.7191 433.858 35.56C439.616 32.4009 446.384 30.8113 454.162 30.8113C460.4 30.8113 466.208 31.721 471.587 33.5505C477.055 35.28 481.814 37.5794 485.843 40.4586V22.1737C482.194 19.9644 477.635 18.1949 472.167 16.8452C466.698 15.4057 460.55 14.6859 453.732 14.6859C445.094 14.6859 437.267 16.0255 430.269 18.7147C423.261 21.304 417.262 25.0529 412.274 29.9415C407.375 34.8402 403.586 40.6885 400.897 47.5066C398.308 54.3247 397.008 61.9025 397.008 70.2602C397.008 80.5273 399.167 89.4547 403.486 97.0426C407.905 104.53 413.903 110.339 421.481 114.468C429.069 118.597 437.656 120.656 447.254 120.656C454.352 120.656 460.69 119.556 466.258 117.347C471.927 115.048 476.725 111.728 480.654 107.41C484.593 103.091 487.562 97.9524 489.582 92.004C491.691 85.9557 492.751 79.2376 492.751 71.8497V63.642H443.505V79.1876Z" fill="black"></path><path d="M366.816 93.2437L318.87 16.1255H297.856V119.216H314.551V41.5283L362.648 119.216H383.522V16.1255H366.816V93.2437Z" fill="black"></path></svg> 